<svg preserveAspectRatio="none" overflow="visible" style="display: block;" width="103.982" height="63.7037" viewBox="0 0 103.982 63.7037" fill="none" xmlns="http://www.w3.org/2000/svg">
<path id="Vector 1" d="M1.69407 0.0338788C2.52233 -0.109212 3.51463 0.222866 4.21524 0.619083C4.43686 0.742384 4.2657 1.14832 4.41554 1.25259C4.70033 1.45521 5.01777 1.28775 5.29087 1.52371C5.38035 1.6039 5.1657 2.25231 5.2611 2.32111C5.78699 2.69392 6.34331 2.60314 6.88001 2.83C9.53511 3.95307 12.0915 4.6724 14.7101 5.44585C15.5758 5.70123 16.5328 6.48944 17.4847 6.3846C17.5957 6.37173 17.6339 5.77992 17.6623 5.73554C18.1047 5.05741 17.7961 6.21186 17.9757 6.40353C18.6821 7.15981 19.5871 7.36943 20.4054 7.27543C20.7558 7.23402 20.6132 6.023 20.8417 6.7274C20.8579 6.77511 20.6702 7.37862 20.7512 7.45977C20.9331 7.6423 21.3445 7.59664 21.4979 7.67194C21.7937 7.82035 21.8436 7.82206 22.1356 7.87648C22.5346 7.95628 22.9608 8.33926 23.4139 8.26647C23.5108 8.24908 23.4883 7.59595 23.6515 7.51088C23.8149 7.42608 24.1906 7.53917 24.2984 7.70867C24.4059 7.87825 24.2743 8.36844 24.2799 8.48628C24.3246 9.48053 24.9747 8.21149 25.0364 8.18682C25.6516 7.9668 26.1596 8.12635 26.6596 8.3408C27.1111 8.52622 27.5435 8.75361 28.0127 8.82616C28.8056 8.94698 29.6766 8.83759 30.4283 9.0116C31.3048 9.21815 31.9973 9.71099 32.8678 9.83715C32.9604 9.85147 33.0124 9.09059 33.1266 9.1068C34.3253 9.27686 35.5078 9.64606 36.5395 10.449C36.642 10.53 36.3219 11.1302 36.4132 11.2492C36.9994 11.9679 37.7012 13.5345 38.9607 10.9044C39.4082 11.1579 39.9678 11.4581 40.2059 12.1494C40.3643 12.5961 39.8698 13.1922 40.3018 13.0119C40.399 12.9722 40.5022 12.3399 40.6337 12.3261C41.1868 12.2684 41.6413 12.6456 42.224 12.5106C42.343 12.4817 42.5116 11.9403 42.574 11.8545C43.0892 11.1632 43.0028 12.5893 43.0472 12.7126C43.4109 13.6425 43.9693 13.551 44.5388 13.8045C44.6703 13.8637 44.8026 13.0952 44.9406 13.1273C45.6625 13.3081 46.3358 13.6724 46.8436 14.2748C46.955 14.4101 46.5544 14.9397 46.5933 15.0343C46.7675 15.4446 47.3504 14.3657 47.5286 14.7416C47.5664 14.8193 47.2954 15.3049 47.2804 15.3652C47.0425 16.3105 47.7713 15.1569 47.83 15.1519C48.5777 15.0578 48.3011 16.5001 48.9204 16.5907C48.9956 16.6006 49.171 15.9018 49.3638 15.9685C50.6516 16.4104 51.8162 17.2757 52.6634 18.4269C52.7957 18.6051 52.4018 18.9851 52.3801 19.0477C52.0413 20.0273 52.8497 18.9249 52.9339 18.9154C53.5775 18.87 53.3919 20.0949 54.5488 18.9049C56.1395 20.5525 58.4746 21.0329 59.421 23.4627C59.4339 23.4922 59.0104 24.014 59.0376 24.0704C59.3607 24.7549 59.8532 23.8285 60.9432 23.0369C61.0254 22.9773 61.0281 23.0663 60.9903 23.2229C60.9081 23.5925 60.6006 24.3277 60.5717 24.404C60.42 24.8062 59.7483 25.552 59.7314 25.6387C59.6038 26.3246 61.4897 23.6181 61.8324 23.8665C61.8397 23.8786 61.4372 24.3363 61.4297 24.4056C61.405 24.6223 61.635 24.492 61.596 24.7231C61.5045 25.2573 60.6075 26.5868 61.4566 26.0601C61.5667 25.9919 62.6404 24.4573 62.8859 24.7569C62.9831 24.8768 63.5221 25.2575 63.5914 25.4689C63.6603 25.6788 63.1849 26.0707 63.1791 26.0994C63.0626 27.0276 62.71 27.1687 62.1513 28.2349C61.5898 29.294 63.3141 27.082 63.5901 26.9035C63.8664 26.7262 63.7229 27.4617 63.6416 27.6922C63.5612 27.9232 63.2326 28.1476 63.2081 28.2959C63.0486 29.2672 64.2763 27.376 64.6944 27.1468C65.6908 26.6109 64.5736 28.3946 64.7074 28.7839C64.745 28.8904 64.9978 28.4818 65.0934 28.5071C65.469 28.6138 65.1897 29.2347 65.8831 29.0612C65.9951 29.0319 67.0832 28.333 66.6139 29.1496C66.5454 29.2666 66.1317 29.5896 66.1612 29.7755C66.2043 30.0534 66.4159 30.4087 66.7068 30.4476C66.9222 30.4765 67.3674 29.7202 67.3444 30.066C67.3334 30.2197 66.8558 30.4533 66.8629 30.7113C66.8692 30.9679 67.219 31.279 67.357 31.3918C67.4953 31.504 67.8825 30.9759 67.9234 30.9549C68.1611 30.8383 68.6273 30.8628 68.6485 30.8854C69.8011 31.9329 69.9637 33.7089 71.2139 34.5753C71.3116 34.6443 71.772 34.1339 71.7921 34.1398C72.2725 34.2518 70.7013 35.2154 70.4264 35.8236C71.4423 34.8799 71.3621 35.1687 71.6607 35.2807C71.8055 35.3341 72.1629 34.9272 72.2125 34.9005C72.9617 34.5204 72.2562 35.315 72.116 35.4824C71.6013 36.0991 72.4064 35.6003 72.0622 36.013C71.7199 36.4218 70.9938 36.7708 71.1728 36.966C71.5997 36.7023 72.4591 35.711 72.7519 35.7314C73.8656 35.812 74.0001 37.583 74.2995 38.1314C74.601 38.679 74.7972 38.7819 74.8768 39.1745C75.0195 39.8855 75.6331 39.1078 76.23 39.1602C76.8273 39.2148 74.8281 40.4982 74.4598 40.8539C74.0904 41.208 74.5435 40.9387 74.364 41.1643C74.1842 41.3893 73.8179 41.4797 73.8336 41.6733C73.8492 41.8661 74.8394 41.6748 75.2998 41.4018C76.2744 40.8223 77.0957 39.9459 77.0299 40.5501C77.0254 40.5851 76.4782 40.893 76.4861 41.0083C76.5633 41.9095 77.0131 42.5698 77.1181 43.435C77.1321 43.555 76.5167 43.8859 76.5184 43.9602C76.5321 44.7335 77.3438 43.8643 78.6003 43.3893C77.1541 44.3347 76.4107 45.1083 76.6809 45.503C76.8429 45.7408 77.4265 45.2612 77.9682 45.1057C78.1315 45.0587 77.8289 45.5261 78.1392 45.3507C79.1544 44.7789 80.0999 43.8697 79.9676 44.5757C79.9602 44.6077 79.4026 44.9179 79.4148 45.0016C79.4928 45.5467 80.5155 44.8937 80.9407 45.2424C81.2606 45.5047 81.1067 46.4608 81.2425 46.9371L81.0703 46.7267C81.0787 46.7456 81.0876 46.7636 81.097 46.7806C79.6848 48.1119 80.3193 48.1309 81.3948 47.316C81.5609 47.564 81.8409 47.7372 81.9124 48.0664C81.9387 48.1805 81.4992 48.5364 81.4656 48.5884C80.9396 49.4062 81.9419 48.5645 82.0221 48.5709C82.8586 48.6875 82.6129 49.8023 83.7468 49.5185C83.7881 49.5085 84.7055 48.5209 84.1868 49.3747C84.1513 49.4337 83.5831 49.7518 83.7857 49.9915C83.9832 50.2272 83.9723 51.1657 84.7072 50.958C84.886 50.91 85.7684 50.2166 85.4016 51.0165C85.3516 51.125 85.0872 51.4087 84.9859 51.6029C84.6671 52.2246 85.5636 51.1965 84.9752 52.2051C84.3859 53.2127 84.141 54.1195 84.9864 53.7522C85.0125 53.7426 85.7408 52.9385 85.8426 53.0341C86.0044 53.1876 86.1343 53.5576 86.3302 53.6863C86.4241 53.7475 86.7499 53.1571 86.7728 53.1582C87.5953 53.2733 87.6934 54.0566 88.2419 54.7055C88.3473 54.8292 89.1715 54.2616 89.0489 55.028C88.9216 55.8698 86.9657 58.5444 88.0428 58.256C88.4884 58.1467 90.7967 54.6523 90.2491 56.8068C91.3987 56.8006 91.8126 58.2163 93.0791 57.9102C93.1351 57.8966 93.7102 56.8724 93.8003 56.9254C93.936 57.0073 93.8153 57.5448 93.9112 57.6204C94.3011 57.9463 94.8719 57.6558 95.278 57.8672C95.4344 57.9465 95.2022 58.4634 95.394 58.5581C95.5857 58.6514 95.9389 57.9848 96.1032 58.4066C96.1929 58.6319 96.1203 59.4425 96.1579 59.9956C96.1814 60.0055 96.2577 60.0159 96.2821 60.0236C96.3211 60.259 96.3766 60.4453 96.4598 60.513C96.7191 59.0399 96.9127 59.1052 97.3138 58.7634C97.3904 58.6968 97.3923 58.1715 97.4318 58.1133C97.5913 57.8647 97.6494 58.3074 97.8039 58.0323C97.8411 57.9662 97.9045 57.4595 97.9376 57.3767C98.2153 56.6535 98.4049 57.828 98.4471 58.0327C98.5923 58.81 98.7569 58.1573 98.8989 58.469C99.0448 58.7806 98.7597 59.1332 98.9468 59.3299C99.3386 59.7371 99.891 59.6852 100.317 59.7249C100.487 59.7377 100.396 59.052 100.421 59.038C100.772 58.8784 101.11 59.612 101.33 58.2583C101.502 61.7732 101.546 57.9228 102.025 58.6316C102.063 58.6889 102.097 60.3497 101.941 60.5917C101.784 60.8334 101.56 60.3112 101.34 60.6867C101.289 60.7751 100.959 62.3237 100.913 62.4166C100.569 63.1441 100.602 60.662 100.591 60.5254C100.457 59.0499 100.043 60.7102 99.9372 60.8209C99.4744 61.3303 99.119 60.9581 98.7183 61.3064C98.4557 61.5309 98.2877 63.1474 98.0862 63.0789C97.4006 62.8461 97.4839 60.5729 96.5718 62.4271C96.3722 62.8201 96.2335 64.5995 95.9365 63.1343C95.9286 63.0935 95.8911 62.8116 95.8247 62.5752C95.7559 62.5532 95.5406 62.524 95.474 62.496C95.4227 62.193 95.3204 61.9584 95.0807 62.3583C95.0266 62.4488 94.8834 62.9463 94.8363 62.9779C94.5255 63.1802 94.4895 62.7387 94.1814 62.8492C93.8752 62.9603 93.4766 63.1397 93.2496 62.8759C93.1081 62.7164 93.2191 61.7321 93.222 61.4821C93.2345 60.7637 92.6143 61.7223 92.7703 60.9C92.9352 60.0765 93.6322 58.9979 93.497 58.372C92.9966 59.6206 92.4651 60.895 91.9493 62.1457C91.1598 61.7848 90.5673 61.0525 89.7806 60.7446C89.6822 60.7074 89.4686 61.4066 89.3534 61.3825C88.8623 61.2744 88.7194 60.6263 88.1883 60.5803C87.7724 60.5452 87.0334 61.0154 86.5798 60.9816C87.1157 59.5182 86.3514 59.681 86.0518 59.335C85.9487 59.2159 86.1706 58.8696 86.1505 58.7003C86.0715 58.0698 85.5154 59.324 85.3074 59.4471C84.4147 59.9661 86.0224 57.341 85.5416 57.118C85.5191 57.1072 84.3151 58.2777 84.2143 58.3326C83.5805 58.7091 84.4901 57.83 84.3969 57.6205C84.2257 57.2358 84.2538 56.7786 83.6373 56.9296C83.4566 56.9758 82.6171 57.6315 82.8925 56.8518C82.9288 56.7498 83.2642 56.3233 83.2631 56.283C83.2182 55.591 82.1931 56.951 81.6303 57.2487C81.0649 57.544 81.4642 56.3631 81.6125 56.0478C81.9891 55.2278 81.9715 55.8535 82.0338 55.7925C82.7685 55.0663 82.4361 55.0313 82.3196 54.8279C83.3332 53.4993 83.0444 53.3964 82.1957 54.6228C82.1032 54.7569 82.333 54.7411 82.3196 54.8279C81.1501 55.9928 80.7387 55.932 81.4258 54.512C81.7505 53.8481 82.4104 53.3101 81.8231 53.2162C81.5564 53.1713 80.879 54.1057 80.5141 54.2062C79.6777 54.432 79.9151 53.2078 79.4388 52.9994C79.2657 52.9236 78.9678 53.5053 78.8338 53.4685C78.4758 53.3706 78.5829 52.8227 78.1801 52.7722C78.1427 52.7678 77.7399 53.295 77.659 53.229C77.0306 52.7308 76.8488 51.9507 76.2917 51.3512C76.2803 51.3389 76.2681 51.3267 76.2551 51.3145C76.1682 51.1953 75.861 50.8809 75.793 50.7499C75.5665 50.4667 74.9504 50.1639 74.806 49.8369C74.5397 49.2444 74.872 48.0541 74.3669 47.7472C74.04 47.5457 73.5492 47.9933 73.0963 48.1324C72.2205 48.4048 73.1879 47.0789 73.3429 46.881C73.3481 46.8746 73.6506 47.0282 73.831 46.6997C74.3481 46.2109 73.3473 46.8819 73.3429 46.881C73.4435 46.7534 73.209 46.175 73.0375 46.1541C72.9436 46.1424 72.4602 46.5398 72.4208 46.5268C71.4957 46.2073 70.8993 45.6687 70.6477 44.851C70.6493 44.8322 71.2198 44.4279 71.2164 44.3887C71.183 43.8294 70.3191 44.107 69.6864 44.1174C69.0526 44.1262 69.0045 43.7885 69.8095 42.8707C69.5134 42.7376 69.673 42.085 69.7753 41.6976C69.877 41.3096 68.7953 42.1355 68.7615 42.1363C67.6863 42.1737 68.0574 41.3973 67.7216 40.8047C67.5633 40.5207 67.0072 40.1693 66.6712 40.008C66.4051 39.8828 66.5391 39.551 66.2219 39.4982C66.1793 39.4909 65.7461 39.9157 65.7218 39.9233C64.9965 40.1956 66.1954 39.3169 66.3561 39.0991C66.9404 38.3079 67.2348 37.8671 66.6571 37.9005C66.5231 37.9061 64.7812 39.1581 64.592 39.1356C64.3473 39.1018 64.9601 38.6396 64.6883 38.6168C64.6655 38.6144 64.3206 38.9357 64.2528 38.8314C63.935 38.3528 63.7081 37.7128 63.2624 37.322C63.2029 37.2675 62.7384 37.8625 62.6444 37.7931C62.2052 37.4691 61.8113 37.0364 61.6795 36.4202C61.6485 36.2667 62.0712 35.9474 62.1593 35.8162C62.6877 35.018 61.5608 35.8312 61.5149 35.8236C60.3722 35.6422 60.6653 34.2349 59.5378 34.0344C59.4728 34.0233 58.217 34.8756 58.894 33.8029C58.9398 33.7321 59.6289 32.6312 58.9417 33.2027C58.8992 33.2388 58.5598 33.8176 58.4547 33.6421C58.3477 33.4655 57.8313 33.6131 58.0816 32.8809C58.1617 32.6512 58.8008 31.5193 57.9658 32.1628C57.9047 32.205 56.1844 33.7938 57.0528 32.4501C57.1959 32.2291 58.2436 30.9048 57.4743 31.4062C57.3269 31.5049 57.1816 31.8672 56.9196 31.9635C56.519 32.1143 56.5429 31.5679 55.8715 32.0085C55.7522 32.0861 54.9168 32.8947 55.2919 32.0938C55.3502 31.968 55.7191 31.5391 55.684 31.4364C55.6341 31.2889 55.5461 31.1903 55.4444 31.1097C55.1781 30.9014 54.8408 30.7898 54.7244 30.3763C54.6646 30.1676 55.2562 29.4696 55.251 29.1686C55.2459 28.8676 55.0876 28.4722 54.7 28.7106C54.3128 28.9493 53.6524 30.2573 53.3629 30.199C52.1081 29.9481 51.6358 28.6047 50.7381 27.8774C50.6058 27.77 50.4424 28.2825 50.2283 28.1568C49.4317 27.6882 47.87 27.3051 47.7513 25.9645C47.6505 24.8853 48.6749 24.6991 48.4327 24.1444C48.3107 23.8764 47.2576 25.2201 47.1843 25.2399C46.4503 25.4467 46.4787 24.6104 45.9409 24.5834C45.83 24.5783 45.5955 25.2284 45.5053 25.2178C45.1952 25.1875 45.0688 24.7775 44.7982 24.702C44.6761 24.6695 44.4595 25.1456 44.3774 25.0587C44.1762 24.8555 44.0651 24.5549 44.0413 23.9982C44.0387 23.9473 44.4728 23.436 44.3 23.3246C44.0188 23.146 43.8552 22.533 43.2978 22.825C43.1318 22.9137 42.6295 23.9967 42.7564 23.1483C42.7825 22.9712 43.4314 21.6904 42.6656 22.7045C42.5354 22.8713 41.436 24.2116 41.6609 23.1361C41.7193 22.8525 42.0382 21.7124 41.8396 21.8285C41.8113 21.8485 41.6281 22.4675 41.5011 22.4816C41.0556 22.5205 40.7086 22.3043 40.2585 22.3418C40.1385 22.3534 40.042 23.029 39.8724 23.0272C39.4137 23.0262 38.9641 22.6751 38.6408 22.3366C38.5204 22.2099 38.8095 21.73 38.8194 21.67C38.9754 20.6913 38.4253 21.8898 38.343 21.9418C37.8272 22.2453 37.765 21.5713 37.3748 21.6125C37.2685 21.6227 37.1355 22.2386 37.0994 22.2854C36.7382 22.7403 37.2344 21.7199 37.1522 21.562C36.9255 21.1172 36.5301 21.0435 36.1569 21.0119C36.0208 21.0016 35.9485 21.7393 35.8311 21.7229C35.1314 21.6386 34.4591 21.3731 33.8924 20.8062C33.7863 20.6983 34.0104 20.1794 34.0171 20.049C34.066 19.1368 33.4859 20.2451 33.3972 20.3422C32.9869 20.7839 32.9994 20.2771 32.7287 20.3048C31.4171 20.4507 29.9963 19.8103 28.8561 19.3914C27.5509 18.9142 26.5429 18.3085 25.2717 18.1158C25.077 18.0867 24.8782 18.0651 24.6739 18.0527C24.5682 18.0455 24.567 18.7971 24.4743 18.8003C23.2799 18.8081 22.1798 18.3455 20.9879 18.373C20.8898 18.3739 20.9166 19.0924 20.755 19.1171C20.4223 19.1726 20.0334 19.0709 19.7523 18.7968C19.6151 18.6644 19.9201 18.101 19.7803 17.98C19.4549 17.6968 19.081 17.5841 18.691 17.6335C18.5255 17.6562 18.6439 18.4073 18.4379 18.3813C17.0331 18.2186 15.6494 18.1046 14.4241 16.9406C14.341 16.8608 14.511 15.4022 14.2598 15.6434C14.1739 16.0414 14.0916 16.5128 14.0094 16.9399C11.9758 16.8193 10.1026 15.9658 8.16717 15.5548C8.08523 15.5376 8.0966 16.3275 7.93772 16.2982C7.02052 16.1301 6.10799 16.1965 5.30966 15.2902C5.22945 15.2013 5.4861 13.8581 5.18302 14.0204C5.12862 14.05 4.69851 14.169 4.54848 14.4468C4.52781 14.489 4.50706 15.1307 4.37486 15.1299C3.611 15.1144 2.86577 14.865 2.19126 14.3924C2.08266 14.3149 2.2872 13.6552 2.20881 13.594C1.65156 13.1651 0.969274 13.6153 0.482224 12.96C0.149451 12.519 0.371324 11.3582 0.238601 10.1912C0.218459 10.0263 -0.0213958 9.98659 0.00154467 9.31467C0.0552664 7.62422 0.28601 5.7825 0.330154 3.97992C0.338932 3.59114 -0.0735557 3.98965 0.204655 3.06396C0.223441 3.00175 0.530298 2.70641 0.623514 2.39354C0.688121 2.17702 0.635755 1.4887 0.759557 1.21408C0.886289 0.940019 0.961362 1.51926 1.15562 1.20132C1.35207 0.879842 1.33296 0.097527 1.69407 0.0338788ZM70.2142 39.9522C70.5772 39.3641 68.7074 40.8575 69.3014 40.6794C69.3324 40.669 70.1967 39.9814 70.2142 39.9522ZM91.3152 59.3996C91.4593 58.3077 90.6083 59.6225 90.4802 60.4611C90.3613 61.3023 91.2779 59.7332 91.3152 59.3996ZM94.7127 59.8926C94.6286 58.988 93.4701 62.1778 94.095 61.6633C94.1316 61.6345 94.7188 59.9455 94.7127 59.8926ZM1.23445 9.93789C1.23404 9.90586 1.05947 9.85946 1.05285 9.8906C0.89567 10.6397 1.23758 10.7312 1.23445 9.93789ZM98.1939 59.7622C98.129 59.295 97.7473 59.7851 97.824 60.3681C97.8912 60.8382 98.2811 60.3449 98.1939 59.7622ZM63.9426 29.6667C63.9634 29.6374 63.8848 29.5256 63.7539 29.6789C63.3326 30.1728 63.5908 30.156 63.9426 29.6667ZM103.553 59.9141C102.768 59.7859 102.316 56.9802 103.154 57.2994C103.306 57.357 102.823 58.1924 103.016 58.4456C103.373 58.9068 103.611 57.147 103.976 58.09C104.042 58.2626 103.598 59.9277 103.552 59.918C103.552 59.9167 103.553 59.9154 103.553 59.9141ZM72.3553 38.0304C72.3769 38.0068 72.2822 37.8443 72.2551 37.8608C71.6053 38.2665 71.7937 38.5917 72.3553 38.0304ZM58.6379 23.7151C58.668 23.6538 58.3483 23.356 58.3013 23.3991C57.4116 24.2942 58.051 24.8959 58.6379 23.7151ZM81.0645 46.8215C81.7528 46.4358 81.972 46.5326 81.3949 47.3147C81.2963 47.1413 81.166 46.9958 81.0645 46.8215Z" fill="#FFAE00"/>
</svg>
